<mxfile host="65bd71144e" pages="7">
    <diagram id="C5RBs43oDa-KdzZeNtuy" name="Front Page">
        <mxGraphModel dx="891" dy="1278" grid="1" gridSize="10" guides="1" tooltips="1" connect="1" arrows="1" fold="1" page="1" pageScale="1" pageWidth="1600" pageHeight="1200" math="0" shadow="0">
            <root>
                <mxCell id="WIyWlLk6GJQsqaUBKTNV-0"/>
                <mxCell id="WIyWlLk6GJQsqaUBKTNV-1" parent="WIyWlLk6GJQsqaUBKTNV-0"/>
                <mxCell id="rFt3KGQ4Cc3wVqvumHyu-2" value="Mesaj inspirational + poza laborator cand nu e nimeni logat" style="rounded=0;whiteSpace=wrap;html=1;" parent="WIyWlLk6GJQsqaUBKTNV-1" vertex="1">
                    <mxGeometry x="140" y="380" width="980" height="400" as="geometry"/>
                </mxCell>
                <mxCell id="rFt3KGQ4Cc3wVqvumHyu-0" value="" style="rounded=0;whiteSpace=wrap;html=1;" parent="WIyWlLk6GJQsqaUBKTNV-1" vertex="1">
                    <mxGeometry x="610" y="150" width="510" height="210" as="geometry"/>
                </mxCell>
                <mxCell id="I1V4Tr0UsQz78hEVoUAy-0" value="" style="rounded=0;whiteSpace=wrap;html=1;" parent="WIyWlLk6GJQsqaUBKTNV-1" vertex="1">
                    <mxGeometry x="150" y="400" width="950" height="120" as="geometry"/>
                </mxCell>
                <mxCell id="RJZUPNU_bmwEEmIO1mNp-5" value="Front Page" style="rounded=0;whiteSpace=wrap;html=1;" parent="WIyWlLk6GJQsqaUBKTNV-1" vertex="1">
                    <mxGeometry x="510" y="30" width="120" height="60" as="geometry"/>
                </mxCell>
                <mxCell id="RJZUPNU_bmwEEmIO1mNp-8" value="Login" style="rounded=0;whiteSpace=wrap;html=1;" parent="WIyWlLk6GJQsqaUBKTNV-1" vertex="1">
                    <mxGeometry x="700" y="170" width="120" height="60" as="geometry"/>
                </mxCell>
                <mxCell id="RJZUPNU_bmwEEmIO1mNp-13" value="" style="edgeStyle=orthogonalEdgeStyle;rounded=0;orthogonalLoop=1;jettySize=auto;html=1;" parent="WIyWlLk6GJQsqaUBKTNV-1" target="RJZUPNU_bmwEEmIO1mNp-12" edge="1">
                    <mxGeometry relative="1" as="geometry">
                        <mxPoint x="760" y="240" as="sourcePoint"/>
                        <Array as="points">
                            <mxPoint x="760" y="260"/>
                            <mxPoint x="690" y="260"/>
                        </Array>
                    </mxGeometry>
                </mxCell>
                <mxCell id="RJZUPNU_bmwEEmIO1mNp-16" value="" style="edgeStyle=orthogonalEdgeStyle;rounded=0;orthogonalLoop=1;jettySize=auto;html=1;exitX=0.5;exitY=1;exitDx=0;exitDy=0;" parent="WIyWlLk6GJQsqaUBKTNV-1" source="RJZUPNU_bmwEEmIO1mNp-8" target="RJZUPNU_bmwEEmIO1mNp-15" edge="1">
                    <mxGeometry relative="1" as="geometry">
                        <mxPoint x="760" y="240" as="sourcePoint"/>
                        <Array as="points">
                            <mxPoint x="760" y="260"/>
                            <mxPoint x="830" y="260"/>
                        </Array>
                    </mxGeometry>
                </mxCell>
                <mxCell id="RJZUPNU_bmwEEmIO1mNp-12" value="Standard user" style="whiteSpace=wrap;html=1;rounded=0;" parent="WIyWlLk6GJQsqaUBKTNV-1" vertex="1">
                    <mxGeometry x="630" y="280" width="120" height="60" as="geometry"/>
                </mxCell>
                <mxCell id="RJZUPNU_bmwEEmIO1mNp-15" value="Admin" style="whiteSpace=wrap;html=1;rounded=0;" parent="WIyWlLk6GJQsqaUBKTNV-1" vertex="1">
                    <mxGeometry x="770" y="280" width="120" height="60" as="geometry"/>
                </mxCell>
                <mxCell id="RJZUPNU_bmwEEmIO1mNp-21" value="Create new user" style="swimlane;fontStyle=0;childLayout=stackLayout;horizontal=1;startSize=30;horizontalStack=0;resizeParent=1;resizeParentMax=0;resizeLast=0;collapsible=1;marginBottom=0;rounded=0;fillColor=none;gradientColor=none;html=1;" parent="WIyWlLk6GJQsqaUBKTNV-1" vertex="1">
                    <mxGeometry x="960" y="170" width="140" height="120" as="geometry">
                        <mxRectangle x="960" y="260" width="50" height="30" as="alternateBounds"/>
                    </mxGeometry>
                </mxCell>
                <mxCell id="RJZUPNU_bmwEEmIO1mNp-22" value="Name" style="text;strokeColor=none;fillColor=none;align=left;verticalAlign=middle;spacingLeft=4;spacingRight=4;overflow=hidden;points=[[0,0.5],[1,0.5]];portConstraint=eastwest;rotatable=0;rounded=0;html=1;" parent="RJZUPNU_bmwEEmIO1mNp-21" vertex="1">
                    <mxGeometry y="30" width="140" height="30" as="geometry"/>
                </mxCell>
                <mxCell id="RJZUPNU_bmwEEmIO1mNp-23" value="Password" style="text;strokeColor=none;fillColor=none;align=left;verticalAlign=middle;spacingLeft=4;spacingRight=4;overflow=hidden;points=[[0,0.5],[1,0.5]];portConstraint=eastwest;rotatable=0;rounded=0;html=1;" parent="RJZUPNU_bmwEEmIO1mNp-21" vertex="1">
                    <mxGeometry y="60" width="140" height="30" as="geometry"/>
                </mxCell>
                <mxCell id="RJZUPNU_bmwEEmIO1mNp-24" value="Mail" style="text;strokeColor=none;fillColor=none;align=left;verticalAlign=middle;spacingLeft=4;spacingRight=4;overflow=hidden;points=[[0,0.5],[1,0.5]];portConstraint=eastwest;rotatable=0;rounded=0;html=1;" parent="RJZUPNU_bmwEEmIO1mNp-21" vertex="1">
                    <mxGeometry y="90" width="140" height="30" as="geometry"/>
                </mxCell>
                <mxCell id="RJZUPNU_bmwEEmIO1mNp-27" style="text;strokeColor=none;fillColor=none;align=left;verticalAlign=middle;spacingLeft=4;spacingRight=4;overflow=hidden;points=[[0,0.5],[1,0.5]];portConstraint=eastwest;rotatable=0;rounded=0;html=1;" parent="WIyWlLk6GJQsqaUBKTNV-1" vertex="1">
                    <mxGeometry x="960" y="380" width="140" height="10" as="geometry"/>
                </mxCell>
                <mxCell id="RJZUPNU_bmwEEmIO1mNp-28" value="Test Duration Calculator" style="rounded=0;whiteSpace=wrap;html=1;fillColor=none;gradientColor=none;" parent="WIyWlLk6GJQsqaUBKTNV-1" vertex="1">
                    <mxGeometry x="390" y="430" width="120" height="60" as="geometry"/>
                </mxCell>
                <mxCell id="RJZUPNU_bmwEEmIO1mNp-29" value="Planning" style="rounded=0;whiteSpace=wrap;html=1;fillColor=none;gradientColor=none;" parent="WIyWlLk6GJQsqaUBKTNV-1" vertex="1">
                    <mxGeometry x="580" y="430" width="120" height="60" as="geometry"/>
                </mxCell>
                <mxCell id="RJZUPNU_bmwEEmIO1mNp-30" value="Equipment List/ Capabilities" style="rounded=0;whiteSpace=wrap;html=1;fillColor=none;gradientColor=none;" parent="WIyWlLk6GJQsqaUBKTNV-1" vertex="1">
                    <mxGeometry x="200" y="430" width="120" height="60" as="geometry"/>
                </mxCell>
                <mxCell id="2_gbmBmk-mFy2eBmQ3GC-0" value="Hide all tabs, beside login and create, if user is not logged in" style="shape=note2;boundedLbl=1;whiteSpace=wrap;html=1;size=25;verticalAlign=top;align=center;" parent="WIyWlLk6GJQsqaUBKTNV-1" vertex="1">
                    <mxGeometry x="1160" y="20" width="120" height="80" as="geometry"/>
                </mxCell>
                <mxCell id="2_gbmBmk-mFy2eBmQ3GC-1" value="Admin has to approve all new user" style="shape=note2;boundedLbl=1;whiteSpace=wrap;html=1;size=25;verticalAlign=top;align=center;" parent="WIyWlLk6GJQsqaUBKTNV-1" vertex="1">
                    <mxGeometry x="1160" y="120" width="120" height="80" as="geometry"/>
                </mxCell>
                <mxCell id="2_gbmBmk-mFy2eBmQ3GC-2" value="Mail used need to be the corporate one&lt;br&gt;2.Need to implement function to check if mail aleady used" style="shape=note2;boundedLbl=1;whiteSpace=wrap;html=1;size=25;verticalAlign=top;align=center;" parent="WIyWlLk6GJQsqaUBKTNV-1" vertex="1">
                    <mxGeometry x="1160" y="220" width="120" height="120" as="geometry"/>
                </mxCell>
                <mxCell id="rFt3KGQ4Cc3wVqvumHyu-1" value="Logo cu calut" style="rounded=0;whiteSpace=wrap;html=1;" parent="WIyWlLk6GJQsqaUBKTNV-1" vertex="1">
                    <mxGeometry x="140" y="150" width="430" height="200" as="geometry"/>
                </mxCell>
                <mxCell id="rFt3KGQ4Cc3wVqvumHyu-3" value="Test tracking" style="rounded=0;whiteSpace=wrap;html=1;" parent="WIyWlLk6GJQsqaUBKTNV-1" vertex="1">
                    <mxGeometry x="760" y="430" width="120" height="60" as="geometry"/>
                </mxCell>
                <mxCell id="XoXTZrkLWlKkHuD9dTyH-1" value="Add text after login: Please use Google Chrome and make sure you have the latest version, before reporting any bugs." style="shape=note2;boundedLbl=1;whiteSpace=wrap;html=1;size=25;verticalAlign=top;align=center;" parent="WIyWlLk6GJQsqaUBKTNV-1" vertex="1">
                    <mxGeometry x="470" y="660" width="340" height="70" as="geometry"/>
                </mxCell>
                <mxCell id="IUTRgJCzyFQi7A_l7lbC-0" value="&lt;font style=&quot;font-size: 18px&quot;&gt;Verifica cu cineva de la TSR daca ai acces la API pentru logare, citire date proiecte sau alte info din CLIVE?&lt;/font&gt;" style="shape=note2;boundedLbl=1;whiteSpace=wrap;html=1;size=25;verticalAlign=top;align=center;" parent="WIyWlLk6GJQsqaUBKTNV-1" vertex="1">
                    <mxGeometry x="140" y="40" width="310" height="100" as="geometry"/>
                </mxCell>
                <mxCell id="JUavuQLxGNnlcZO5YlxW-0" value="Test report" style="rounded=0;whiteSpace=wrap;html=1;" parent="WIyWlLk6GJQsqaUBKTNV-1" vertex="1">
                    <mxGeometry x="940" y="430" width="120" height="60" as="geometry"/>
                </mxCell>
            </root>
        </mxGraphModel>
    </diagram>
    <diagram id="7iiPvptK0KFM48THmmYd" name="Equipment List/ Capabilities">
        <mxGraphModel dx="401" dy="575" grid="1" gridSize="10" guides="1" tooltips="1" connect="1" arrows="1" fold="1" page="1" pageScale="1" pageWidth="1600" pageHeight="1200" math="0" shadow="0">
            <root>
                <mxCell id="DuJRWAIrD1JnlJbQq-Un-0"/>
                <mxCell id="DuJRWAIrD1JnlJbQq-Un-1" parent="DuJRWAIrD1JnlJbQq-Un-0"/>
                <mxCell id="w2K_tVpRgqPxnXqsQKxw-9" value="" style="rounded=0;whiteSpace=wrap;html=1;" parent="DuJRWAIrD1JnlJbQq-Un-1" vertex="1">
                    <mxGeometry x="60" y="210" width="510" height="1550" as="geometry"/>
                </mxCell>
                <mxCell id="AWF-3m6g3krwU4YdUBEX-0" value="" style="rounded=0;whiteSpace=wrap;html=1;" parent="DuJRWAIrD1JnlJbQq-Un-1" vertex="1">
                    <mxGeometry x="60" y="30" width="1140" height="130" as="geometry"/>
                </mxCell>
                <mxCell id="SFYWnweVkXIrbqSC1wzn-0" value="" style="rounded=0;whiteSpace=wrap;html=1;" parent="DuJRWAIrD1JnlJbQq-Un-1" vertex="1">
                    <mxGeometry x="60" y="280" width="200" height="1310" as="geometry"/>
                </mxCell>
                <mxCell id="nLJQWRXgmxC8ID7Ermn4-0" value="Camera 1.toggle" style="rounded=1;whiteSpace=wrap;html=1;fillColor=none;gradientColor=none;" parent="DuJRWAIrD1JnlJbQq-Un-1" vertex="1">
                    <mxGeometry x="260" y="50" width="120" height="60" as="geometry"/>
                </mxCell>
                <mxCell id="nLJQWRXgmxC8ID7Ermn4-1" value="Tmax" style="rounded=0;whiteSpace=wrap;html=1;fillColor=none;gradientColor=none;" parent="DuJRWAIrD1JnlJbQq-Un-1" vertex="1">
                    <mxGeometry x="100" y="390" width="120" height="60" as="geometry"/>
                </mxCell>
                <mxCell id="nLJQWRXgmxC8ID7Ermn4-2" value="Tmin" style="rounded=0;whiteSpace=wrap;html=1;fillColor=none;gradientColor=none;" parent="DuJRWAIrD1JnlJbQq-Un-1" vertex="1">
                    <mxGeometry x="100" y="480" width="120" height="60" as="geometry"/>
                </mxCell>
                <mxCell id="nLJQWRXgmxC8ID7Ermn4-3" value="Ramp up" style="rounded=0;whiteSpace=wrap;html=1;fillColor=none;gradientColor=none;" parent="DuJRWAIrD1JnlJbQq-Un-1" vertex="1">
                    <mxGeometry x="100" y="570" width="120" height="60" as="geometry"/>
                </mxCell>
                <mxCell id="nLJQWRXgmxC8ID7Ermn4-4" value="Ramp down" style="rounded=0;whiteSpace=wrap;html=1;fillColor=none;gradientColor=none;" parent="DuJRWAIrD1JnlJbQq-Un-1" vertex="1">
                    <mxGeometry x="100" y="660" width="120" height="60" as="geometry"/>
                </mxCell>
                <mxCell id="nLJQWRXgmxC8ID7Ermn4-5" value="Humidity Capable?&lt;br&gt;Yes / No" style="rounded=0;whiteSpace=wrap;html=1;fillColor=none;gradientColor=none;" parent="DuJRWAIrD1JnlJbQq-Un-1" vertex="1">
                    <mxGeometry x="100" y="750" width="120" height="60" as="geometry"/>
                </mxCell>
                <mxCell id="nLJQWRXgmxC8ID7Ermn4-6" value="Limited Capability after calibration&lt;br&gt;Yes / No" style="rounded=0;whiteSpace=wrap;html=1;fillColor=none;gradientColor=none;" parent="DuJRWAIrD1JnlJbQq-Un-1" vertex="1">
                    <mxGeometry x="100" y="840" width="120" height="60" as="geometry"/>
                </mxCell>
                <mxCell id="nLJQWRXgmxC8ID7Ermn4-7" value="Customs Number" style="rounded=0;whiteSpace=wrap;html=1;fillColor=none;gradientColor=none;" parent="DuJRWAIrD1JnlJbQq-Un-1" vertex="1">
                    <mxGeometry x="100" y="930" width="120" height="60" as="geometry"/>
                </mxCell>
                <mxCell id="nLJQWRXgmxC8ID7Ermn4-8" value="Entry Ports" style="rounded=0;whiteSpace=wrap;html=1;fillColor=none;gradientColor=none;" parent="DuJRWAIrD1JnlJbQq-Un-1" vertex="1">
                    <mxGeometry x="100" y="1110" width="120" height="60" as="geometry"/>
                </mxCell>
                <mxCell id="Vkca1y0qSs6QcmGNfRN8-4" value="Model: Dimensiune" style="rounded=0;whiteSpace=wrap;html=1;fillColor=none;gradientColor=none;" parent="DuJRWAIrD1JnlJbQq-Un-1" vertex="1">
                    <mxGeometry x="100" y="300" width="120" height="60" as="geometry"/>
                </mxCell>
                <mxCell id="Vkca1y0qSs6QcmGNfRN8-5" value="Power sockets in area" style="rounded=0;whiteSpace=wrap;html=1;fillColor=none;gradientColor=none;" parent="DuJRWAIrD1JnlJbQq-Un-1" vertex="1">
                    <mxGeometry x="100" y="1200" width="120" height="60" as="geometry"/>
                </mxCell>
                <mxCell id="Vkca1y0qSs6QcmGNfRN8-6" value="Buton EDIT" style="rounded=0;whiteSpace=wrap;html=1;fillColor=none;gradientColor=none;" parent="DuJRWAIrD1JnlJbQq-Un-1" vertex="1">
                    <mxGeometry x="870" y="50" width="120" height="60" as="geometry"/>
                </mxCell>
                <mxCell id="Vkca1y0qSs6QcmGNfRN8-7" value="Buton Save" style="rounded=0;whiteSpace=wrap;html=1;fillColor=none;gradientColor=none;" parent="DuJRWAIrD1JnlJbQq-Un-1" vertex="1">
                    <mxGeometry x="1050" y="50" width="120" height="60" as="geometry"/>
                </mxCell>
                <mxCell id="toYLeqBE4gD2reJ9LeEN-0" value="Buton Add new" style="rounded=0;whiteSpace=wrap;html=1;fillColor=none;gradientColor=none;" parent="DuJRWAIrD1JnlJbQq-Un-1" vertex="1">
                    <mxGeometry x="700" y="50" width="120" height="60" as="geometry"/>
                </mxCell>
                <mxCell id="q4yD0in4XJLP5yVNJhra-0" value="Customs Seconds / Minutes" style="rounded=0;whiteSpace=wrap;html=1;fillColor=none;gradientColor=none;" parent="DuJRWAIrD1JnlJbQq-Un-1" vertex="1">
                    <mxGeometry x="100" y="1020" width="120" height="60" as="geometry"/>
                </mxCell>
                <mxCell id="q4yD0in4XJLP5yVNJhra-1" value="LAO? Y/N" style="rounded=0;whiteSpace=wrap;html=1;" parent="DuJRWAIrD1JnlJbQq-Un-1" vertex="1">
                    <mxGeometry x="100" y="1290" width="120" height="60" as="geometry"/>
                </mxCell>
                <mxCell id="q4yD0in4XJLP5yVNJhra-2" value="Condensation? Y/N" style="rounded=0;whiteSpace=wrap;html=1;" parent="DuJRWAIrD1JnlJbQq-Un-1" vertex="1">
                    <mxGeometry x="100" y="1380" width="120" height="60" as="geometry"/>
                </mxCell>
                <mxCell id="tj1hWtfx8OJa_1Z9AtbY-0" value="Toggle:Business Unit" style="rounded=0;whiteSpace=wrap;html=1;fillColor=none;gradientColor=none;" parent="DuJRWAIrD1JnlJbQq-Un-1" vertex="1">
                    <mxGeometry x="440" y="50" width="120" height="60" as="geometry"/>
                </mxCell>
                <mxCell id="tj1hWtfx8OJa_1Z9AtbY-1" value="Toggle button to choose between equipment and buisines unit" style="rounded=1;whiteSpace=wrap;html=1;fillColor=none;gradientColor=none;" parent="DuJRWAIrD1JnlJbQq-Un-1" vertex="1">
                    <mxGeometry x="80" y="50" width="120" height="60" as="geometry"/>
                </mxCell>
                <mxCell id="tj1hWtfx8OJa_1Z9AtbY-2" value="" style="fillColor=#36B37E;strokeColor=none;rounded=1;arcSize=50;sketch=0;hachureGap=4;pointerEvents=0;fontFamily=Architects Daughter;fontSource=https%3A%2F%2Ffonts.googleapis.com%2Fcss%3Ffamily%3DArchitects%2BDaughter;fontSize=20;" parent="DuJRWAIrD1JnlJbQq-Un-1" vertex="1">
                    <mxGeometry x="120" y="120" width="40" height="20" as="geometry"/>
                </mxCell>
                <mxCell id="tj1hWtfx8OJa_1Z9AtbY-3" value="" style="shape=ellipse;strokeColor=none;fillColor=#ffffff;sketch=0;hachureGap=4;pointerEvents=0;fontFamily=Architects Daughter;fontSource=https%3A%2F%2Ffonts.googleapis.com%2Fcss%3Ffamily%3DArchitects%2BDaughter;fontSize=20;" parent="tj1hWtfx8OJa_1Z9AtbY-2" vertex="1">
                    <mxGeometry x="1" y="0.5" width="16" height="16" relative="1" as="geometry">
                        <mxPoint x="-18" y="-8" as="offset"/>
                    </mxGeometry>
                </mxCell>
                <mxCell id="tj1hWtfx8OJa_1Z9AtbY-4" value="" style="html=1;shadow=0;dashed=0;shape=mxgraph.atlassian.check;strokeColor=#ffffff;strokeWidth=2;sketch=1;hachureGap=4;pointerEvents=0;fontFamily=Architects Daughter;fontSource=https%3A%2F%2Ffonts.googleapis.com%2Fcss%3Ffamily%3DArchitects%2BDaughter;fontSize=20;" parent="tj1hWtfx8OJa_1Z9AtbY-2" vertex="1">
                    <mxGeometry y="0.5" width="10" height="8" relative="1" as="geometry">
                        <mxPoint x="6" y="-5" as="offset"/>
                    </mxGeometry>
                </mxCell>
                <mxCell id="w2K_tVpRgqPxnXqsQKxw-0" value="" style="rounded=0;whiteSpace=wrap;html=1;" parent="DuJRWAIrD1JnlJbQq-Un-1" vertex="1">
                    <mxGeometry x="630" y="210" width="570" height="590" as="geometry"/>
                </mxCell>
                <mxCell id="w2K_tVpRgqPxnXqsQKxw-1" value="Project name 1" style="rounded=0;whiteSpace=wrap;html=1;fillColor=none;gradientColor=none;" parent="DuJRWAIrD1JnlJbQq-Un-1" vertex="1">
                    <mxGeometry x="675" y="380" width="120" height="60" as="geometry"/>
                </mxCell>
                <mxCell id="w2K_tVpRgqPxnXqsQKxw-2" value="e.g. 64 A Power socket" style="rounded=0;whiteSpace=wrap;html=1;fillColor=none;gradientColor=none;" parent="DuJRWAIrD1JnlJbQq-Un-1" vertex="1">
                    <mxGeometry x="825" y="380" width="120" height="60" as="geometry"/>
                </mxCell>
                <mxCell id="w2K_tVpRgqPxnXqsQKxw-3" value="Project name 2" style="rounded=0;whiteSpace=wrap;html=1;fillColor=none;gradientColor=none;" parent="DuJRWAIrD1JnlJbQq-Un-1" vertex="1">
                    <mxGeometry x="675" y="470" width="120" height="60" as="geometry"/>
                </mxCell>
                <mxCell id="w2K_tVpRgqPxnXqsQKxw-4" value="Only Big chambers" style="rounded=0;whiteSpace=wrap;html=1;fillColor=none;gradientColor=none;" parent="DuJRWAIrD1JnlJbQq-Un-1" vertex="1">
                    <mxGeometry x="825" y="470" width="120" height="60" as="geometry"/>
                </mxCell>
                <mxCell id="w2K_tVpRgqPxnXqsQKxw-5" value="Requirement" style="text;strokeColor=none;fillColor=none;align=left;verticalAlign=top;spacingLeft=4;spacingRight=4;overflow=hidden;rotatable=0;points=[[0,0.5],[1,0.5]];portConstraint=eastwest;rounded=0;html=1;" parent="DuJRWAIrD1JnlJbQq-Un-1" vertex="1">
                    <mxGeometry x="835" y="340" width="110" height="26" as="geometry"/>
                </mxCell>
                <mxCell id="w2K_tVpRgqPxnXqsQKxw-6" value="Project name 3" style="rounded=0;whiteSpace=wrap;html=1;fillColor=none;gradientColor=none;" parent="DuJRWAIrD1JnlJbQq-Un-1" vertex="1">
                    <mxGeometry x="675" y="560" width="120" height="60" as="geometry"/>
                </mxCell>
                <mxCell id="w2K_tVpRgqPxnXqsQKxw-7" value="Custom per second" style="rounded=0;whiteSpace=wrap;html=1;fillColor=none;gradientColor=none;" parent="DuJRWAIrD1JnlJbQq-Un-1" vertex="1">
                    <mxGeometry x="825" y="560" width="120" height="60" as="geometry"/>
                </mxCell>
                <mxCell id="w2K_tVpRgqPxnXqsQKxw-8" value="&amp;nbsp;4 Custom" style="rounded=0;whiteSpace=wrap;html=1;fillColor=none;gradientColor=none;" parent="DuJRWAIrD1JnlJbQq-Un-1" vertex="1">
                    <mxGeometry x="975" y="560" width="120" height="60" as="geometry"/>
                </mxCell>
                <mxCell id="w2K_tVpRgqPxnXqsQKxw-10" value="Page and button is shown if toggle is for chamber" style="text;html=1;strokeColor=none;fillColor=none;align=center;verticalAlign=middle;whiteSpace=wrap;rounded=0;" parent="DuJRWAIrD1JnlJbQq-Un-1" vertex="1">
                    <mxGeometry x="170" y="230" width="210" height="30" as="geometry"/>
                </mxCell>
                <mxCell id="w2K_tVpRgqPxnXqsQKxw-11" value="Page and button is shown if toggle is for Buisness unit" style="text;html=1;strokeColor=none;fillColor=none;align=center;verticalAlign=middle;whiteSpace=wrap;rounded=0;" parent="DuJRWAIrD1JnlJbQq-Un-1" vertex="1">
                    <mxGeometry x="860" y="270" width="180" height="30" as="geometry"/>
                </mxCell>
                <mxCell id="tlWdZryNwerWiCRfiZDc-0" value="Neighbour chambers(To be completed for Ice water shock)" style="rounded=0;whiteSpace=wrap;html=1;" parent="DuJRWAIrD1JnlJbQq-Un-1" vertex="1">
                    <mxGeometry x="100" y="1470" width="120" height="60" as="geometry"/>
                </mxCell>
            </root>
        </mxGraphModel>
    </diagram>
    <diagram id="bTPfYPfa7E4M-gvD9mkZ" name="Test Duration Calculator">
        <mxGraphModel dx="1278" dy="1849" grid="1" gridSize="10" guides="1" tooltips="1" connect="1" arrows="1" fold="1" page="1" pageScale="1" pageWidth="1600" pageHeight="1200" math="0" shadow="0">
            <root>
                <mxCell id="evMjg7DIV9kg0iN_RudY-0"/>
                <mxCell id="evMjg7DIV9kg0iN_RudY-1" parent="evMjg7DIV9kg0iN_RudY-0"/>
                <mxCell id="iEcpUaZsrXrKZJ6F6ecY-0" value="" style="rounded=0;whiteSpace=wrap;html=1;" parent="evMjg7DIV9kg0iN_RudY-1" vertex="1">
                    <mxGeometry x="70" y="190" width="1500" height="880" as="geometry"/>
                </mxCell>
                <mxCell id="-1M276N7DuCSz5oevuFR-23" value="" style="rounded=0;whiteSpace=wrap;html=1;" parent="evMjg7DIV9kg0iN_RudY-1" vertex="1">
                    <mxGeometry x="80" y="190" width="1250" height="80" as="geometry"/>
                </mxCell>
                <mxCell id="-1M276N7DuCSz5oevuFR-8" value="" style="rounded=0;whiteSpace=wrap;html=1;" parent="evMjg7DIV9kg0iN_RudY-1" vertex="1">
                    <mxGeometry x="60" y="60" width="1000" height="90" as="geometry"/>
                </mxCell>
                <mxCell id="-1M276N7DuCSz5oevuFR-12" style="edgeStyle=orthogonalEdgeStyle;rounded=0;orthogonalLoop=1;jettySize=auto;html=1;entryX=0.5;entryY=1;entryDx=0;entryDy=0;entryPerimeter=0;" parent="evMjg7DIV9kg0iN_RudY-1" source="-1M276N7DuCSz5oevuFR-7" target="-1M276N7DuCSz5oevuFR-13" edge="1">
                    <mxGeometry relative="1" as="geometry">
                        <mxPoint x="480" y="485" as="targetPoint"/>
                    </mxGeometry>
                </mxCell>
                <mxCell id="-1M276N7DuCSz5oevuFR-7" value="" style="rounded=0;whiteSpace=wrap;html=1;" parent="evMjg7DIV9kg0iN_RudY-1" vertex="1">
                    <mxGeometry x="80" y="280" width="360" height="730" as="geometry"/>
                </mxCell>
                <mxCell id="vC3Tqdd4kCdH7SI-XOFL-0" value="1. Standard name Test Name" style="rounded=0;whiteSpace=wrap;html=1;fillColor=none;gradientColor=none;" parent="evMjg7DIV9kg0iN_RudY-1" vertex="1">
                    <mxGeometry x="90" y="290" width="120" height="60" as="geometry"/>
                </mxCell>
                <mxCell id="vC3Tqdd4kCdH7SI-XOFL-2" value="Project Name" style="rounded=0;whiteSpace=wrap;html=1;fillColor=none;gradientColor=none;" parent="evMjg7DIV9kg0iN_RudY-1" vertex="1">
                    <mxGeometry x="370" y="200" width="120" height="60" as="geometry"/>
                </mxCell>
                <mxCell id="vC3Tqdd4kCdH7SI-XOFL-3" value="Toggle: Leg X&lt;br&gt;&amp;nbsp; &amp;nbsp; &amp;nbsp;Create New Leg" style="rounded=0;whiteSpace=wrap;html=1;fillColor=none;gradientColor=none;" parent="evMjg7DIV9kg0iN_RudY-1" vertex="1">
                    <mxGeometry x="510" y="200" width="120" height="60" as="geometry"/>
                </mxCell>
                <mxCell id="vC3Tqdd4kCdH7SI-XOFL-6" value="Tstart:" style="rounded=0;whiteSpace=wrap;html=1;fillColor=none;gradientColor=none;" parent="evMjg7DIV9kg0iN_RudY-1" vertex="1">
                    <mxGeometry x="270" y="450" width="120" height="60" as="geometry"/>
                </mxCell>
                <mxCell id="vC3Tqdd4kCdH7SI-XOFL-7" value="Tmin" style="rounded=0;whiteSpace=wrap;html=1;fillColor=none;gradientColor=none;" parent="evMjg7DIV9kg0iN_RudY-1" vertex="1">
                    <mxGeometry x="270" y="530" width="120" height="60" as="geometry"/>
                </mxCell>
                <mxCell id="vC3Tqdd4kCdH7SI-XOFL-8" value="Tmax" style="rounded=0;whiteSpace=wrap;html=1;fillColor=none;gradientColor=none;" parent="evMjg7DIV9kg0iN_RudY-1" vertex="1">
                    <mxGeometry x="270" y="610" width="120" height="60" as="geometry"/>
                </mxCell>
                <mxCell id="vC3Tqdd4kCdH7SI-XOFL-9" value="Thold" style="rounded=0;whiteSpace=wrap;html=1;fillColor=none;gradientColor=none;" parent="evMjg7DIV9kg0iN_RudY-1" vertex="1">
                    <mxGeometry x="270" y="690" width="120" height="60" as="geometry"/>
                </mxCell>
                <mxCell id="yfXrq_zcImt6haItGx8Q-0" value="ID / Leg start date" style="rounded=0;whiteSpace=wrap;html=1;" parent="evMjg7DIV9kg0iN_RudY-1" vertex="1">
                    <mxGeometry x="650" y="200" width="120" height="60" as="geometry"/>
                </mxCell>
                <mxCell id="OUhHXnB-wK_JYMWnzdED-1" style="edgeStyle=orthogonalEdgeStyle;rounded=0;orthogonalLoop=1;jettySize=auto;html=1;entryX=0.5;entryY=1;entryDx=0;entryDy=0;entryPerimeter=0;" parent="evMjg7DIV9kg0iN_RudY-1" source="iEcpUaZsrXrKZJ6F6ecY-2" target="OUhHXnB-wK_JYMWnzdED-0" edge="1">
                    <mxGeometry relative="1" as="geometry"/>
                </mxCell>
                <mxCell id="iEcpUaZsrXrKZJ6F6ecY-2" value="Edit Project Data" style="rounded=0;whiteSpace=wrap;html=1;" parent="evMjg7DIV9kg0iN_RudY-1" vertex="1">
                    <mxGeometry x="710" y="70" width="120" height="60" as="geometry"/>
                </mxCell>
                <mxCell id="-1M276N7DuCSz5oevuFR-1" style="edgeStyle=orthogonalEdgeStyle;rounded=0;orthogonalLoop=1;jettySize=auto;html=1;exitX=1;exitY=0.5;exitDx=0;exitDy=0;entryX=0.5;entryY=0;entryDx=0;entryDy=0;entryPerimeter=0;" parent="evMjg7DIV9kg0iN_RudY-1" source="iEcpUaZsrXrKZJ6F6ecY-3" target="-1M276N7DuCSz5oevuFR-0" edge="1">
                    <mxGeometry relative="1" as="geometry">
                        <mxPoint x="1080" y="140" as="targetPoint"/>
                    </mxGeometry>
                </mxCell>
                <mxCell id="iEcpUaZsrXrKZJ6F6ecY-3" value="Clone / Copy Project" style="rounded=0;whiteSpace=wrap;html=1;" parent="evMjg7DIV9kg0iN_RudY-1" vertex="1">
                    <mxGeometry x="860" y="70" width="120" height="60" as="geometry"/>
                </mxCell>
                <mxCell id="-1M276N7DuCSz5oevuFR-0" value="New Project with name: Copy of Project ID XXX" style="shape=note2;boundedLbl=1;whiteSpace=wrap;html=1;size=25;verticalAlign=top;align=center;" parent="evMjg7DIV9kg0iN_RudY-1" vertex="1">
                    <mxGeometry x="1170" y="60" width="120" height="90" as="geometry"/>
                </mxCell>
                <mxCell id="-1M276N7DuCSz5oevuFR-2" value="Project ID" style="rounded=0;whiteSpace=wrap;html=1;fillColor=none;gradientColor=none;" parent="evMjg7DIV9kg0iN_RudY-1" vertex="1">
                    <mxGeometry x="90" y="200" width="120" height="60" as="geometry"/>
                </mxCell>
                <mxCell id="-1M276N7DuCSz5oevuFR-3" value="&lt;span&gt;Toggle: Project ID OR Search for Project ID&lt;/span&gt;" style="rounded=0;whiteSpace=wrap;html=1;" parent="evMjg7DIV9kg0iN_RudY-1" vertex="1">
                    <mxGeometry x="100" y="70" width="120" height="60" as="geometry"/>
                </mxCell>
                <mxCell id="-1M276N7DuCSz5oevuFR-4" value="Start new project" style="rounded=0;whiteSpace=wrap;html=1;" parent="evMjg7DIV9kg0iN_RudY-1" vertex="1">
                    <mxGeometry x="560" y="70" width="120" height="60" as="geometry"/>
                </mxCell>
                <mxCell id="2kp0RiQIdVxLkYgMcjS8-1" style="edgeStyle=orthogonalEdgeStyle;rounded=0;orthogonalLoop=1;jettySize=auto;html=1;exitX=0.5;exitY=0;exitDx=0;exitDy=0;" parent="evMjg7DIV9kg0iN_RudY-1" source="-1M276N7DuCSz5oevuFR-5" edge="1">
                    <mxGeometry relative="1" as="geometry">
                        <mxPoint x="1089.7142857142858" y="-50" as="targetPoint"/>
                    </mxGeometry>
                </mxCell>
                <mxCell id="-1M276N7DuCSz5oevuFR-5" value="Save" style="rounded=0;whiteSpace=wrap;html=1;" parent="evMjg7DIV9kg0iN_RudY-1" vertex="1">
                    <mxGeometry x="1030" y="200" width="120" height="60" as="geometry"/>
                </mxCell>
                <mxCell id="-1M276N7DuCSz5oevuFR-25" style="edgeStyle=orthogonalEdgeStyle;rounded=0;orthogonalLoop=1;jettySize=auto;html=1;entryX=0;entryY=0.5;entryDx=0;entryDy=0;entryPerimeter=0;" parent="evMjg7DIV9kg0iN_RudY-1" source="-1M276N7DuCSz5oevuFR-6" target="-1M276N7DuCSz5oevuFR-24" edge="1">
                    <mxGeometry relative="1" as="geometry"/>
                </mxCell>
                <mxCell id="-1M276N7DuCSz5oevuFR-6" value="Export to planning" style="rounded=0;whiteSpace=wrap;html=1;" parent="evMjg7DIV9kg0iN_RudY-1" vertex="1">
                    <mxGeometry x="1170" y="200" width="120" height="60" as="geometry"/>
                </mxCell>
                <mxCell id="-1M276N7DuCSz5oevuFR-17" style="edgeStyle=orthogonalEdgeStyle;rounded=0;orthogonalLoop=1;jettySize=auto;html=1;" parent="evMjg7DIV9kg0iN_RudY-1" source="-1M276N7DuCSz5oevuFR-13" target="-1M276N7DuCSz5oevuFR-15" edge="1">
                    <mxGeometry relative="1" as="geometry"/>
                </mxCell>
                <mxCell id="-1M276N7DuCSz5oevuFR-13" value="After Click or enter 1.Standard name /&amp;nbsp; Test name fields will be added on the right side of screen and a default zone will be left on left side with no data input" style="shape=note2;boundedLbl=1;whiteSpace=wrap;html=1;size=25;verticalAlign=top;align=center;" parent="evMjg7DIV9kg0iN_RudY-1" vertex="1">
                    <mxGeometry x="480" y="305" width="180" height="155" as="geometry"/>
                </mxCell>
                <mxCell id="-1M276N7DuCSz5oevuFR-14" value="Click to calculate duration or press enter" style="rounded=0;whiteSpace=wrap;html=1;" parent="evMjg7DIV9kg0iN_RudY-1" vertex="1">
                    <mxGeometry x="90" y="370" width="120" height="60" as="geometry"/>
                </mxCell>
                <mxCell id="5VFwo6uD01gqR_GQ--WW-1" style="edgeStyle=orthogonalEdgeStyle;rounded=0;orthogonalLoop=1;jettySize=auto;html=1;entryX=0.5;entryY=0;entryDx=0;entryDy=0;entryPerimeter=0;" parent="evMjg7DIV9kg0iN_RudY-1" source="-1M276N7DuCSz5oevuFR-15" target="5VFwo6uD01gqR_GQ--WW-0" edge="1">
                    <mxGeometry relative="1" as="geometry"/>
                </mxCell>
                <mxCell id="SlE-0u7bJ63nMxhUcq6w-1" style="edgeStyle=orthogonalEdgeStyle;rounded=0;orthogonalLoop=1;jettySize=auto;html=1;exitX=0.25;exitY=1;exitDx=0;exitDy=0;entryX=0.5;entryY=0;entryDx=0;entryDy=0;entryPerimeter=0;" parent="evMjg7DIV9kg0iN_RudY-1" source="-1M276N7DuCSz5oevuFR-15" target="SlE-0u7bJ63nMxhUcq6w-0" edge="1">
                    <mxGeometry relative="1" as="geometry"/>
                </mxCell>
                <mxCell id="-1M276N7DuCSz5oevuFR-15" value="" style="rounded=0;whiteSpace=wrap;html=1;" parent="evMjg7DIV9kg0iN_RudY-1" vertex="1">
                    <mxGeometry x="700" y="290" width="860" height="185" as="geometry"/>
                </mxCell>
                <mxCell id="-1M276N7DuCSz5oevuFR-18" value="1. Standard name Test Name" style="rounded=0;whiteSpace=wrap;html=1;fillColor=none;gradientColor=none;" parent="evMjg7DIV9kg0iN_RudY-1" vertex="1">
                    <mxGeometry x="730" y="395" width="120" height="60" as="geometry"/>
                </mxCell>
                <mxCell id="-1M276N7DuCSz5oevuFR-19" value="Test duration weeks/ days / hours" style="rounded=0;whiteSpace=wrap;html=1;" parent="evMjg7DIV9kg0iN_RudY-1" vertex="1">
                    <mxGeometry x="870" y="395" width="120" height="60" as="geometry"/>
                </mxCell>
                <mxCell id="-1M276N7DuCSz5oevuFR-20" value="Available start date(based on planning sheet)" style="rounded=0;whiteSpace=wrap;html=1;" parent="evMjg7DIV9kg0iN_RudY-1" vertex="1">
                    <mxGeometry x="1010" y="395" width="120" height="60" as="geometry"/>
                </mxCell>
                <mxCell id="-1M276N7DuCSz5oevuFR-21" value="Chamber NR. XX" style="rounded=0;whiteSpace=wrap;html=1;" parent="evMjg7DIV9kg0iN_RudY-1" vertex="1">
                    <mxGeometry x="1290" y="395" width="120" height="60" as="geometry"/>
                </mxCell>
                <mxCell id="-1M276N7DuCSz5oevuFR-22" value="Export Test parameters to JSON file" style="rounded=0;whiteSpace=wrap;html=1;" parent="evMjg7DIV9kg0iN_RudY-1" vertex="1">
                    <mxGeometry x="1430" y="395" width="120" height="60" as="geometry"/>
                </mxCell>
                <mxCell id="-1M276N7DuCSz5oevuFR-24" value="0.Check if Project alrady exist on planning&lt;br&gt;1.Lock tests to planning&lt;br&gt;2.Add random color to Leg&lt;br&gt;3.Export data to Test tracking." style="shape=note2;boundedLbl=1;whiteSpace=wrap;html=1;size=25;verticalAlign=top;align=center;" parent="evMjg7DIV9kg0iN_RudY-1" vertex="1">
                    <mxGeometry x="1350" y="140" width="190" height="120" as="geometry"/>
                </mxCell>
                <mxCell id="2kp0RiQIdVxLkYgMcjS8-3" style="edgeStyle=orthogonalEdgeStyle;rounded=0;orthogonalLoop=1;jettySize=auto;html=1;exitX=0;exitY=0;exitDx=150;exitDy=67.5;exitPerimeter=0;entryX=0;entryY=0.5;entryDx=0;entryDy=0;entryPerimeter=0;" parent="evMjg7DIV9kg0iN_RudY-1" source="5VFwo6uD01gqR_GQ--WW-0" target="2kp0RiQIdVxLkYgMcjS8-0" edge="1">
                    <mxGeometry relative="1" as="geometry"/>
                </mxCell>
                <mxCell id="5VFwo6uD01gqR_GQ--WW-0" value="Next test start date will be based on end date of previous test taking in account weekends and free days&amp;nbsp;" style="shape=note2;boundedLbl=1;whiteSpace=wrap;html=1;size=25;verticalAlign=top;align=center;" parent="evMjg7DIV9kg0iN_RudY-1" vertex="1">
                    <mxGeometry x="1055" y="595" width="150" height="110" as="geometry"/>
                </mxCell>
                <mxCell id="SlE-0u7bJ63nMxhUcq6w-0" value="If mouse click on 1.Test Name parameter used to calculate duration will appear on left side of screen" style="shape=note2;boundedLbl=1;whiteSpace=wrap;html=1;size=25;verticalAlign=top;align=center;" parent="evMjg7DIV9kg0iN_RudY-1" vertex="1">
                    <mxGeometry x="830" y="600" width="170" height="100" as="geometry"/>
                </mxCell>
                <mxCell id="OUhHXnB-wK_JYMWnzdED-0" value="Prompt which require password will Pop Up to activate edit" style="shape=note2;boundedLbl=1;whiteSpace=wrap;html=1;size=25;verticalAlign=top;align=center;" parent="evMjg7DIV9kg0iN_RudY-1" vertex="1">
                    <mxGeometry x="710" y="-120" width="120" height="90" as="geometry"/>
                </mxCell>
                <mxCell id="4bAGWJzG4Wa3ph4t4Eim-0" value="Number of samples" style="rounded=0;whiteSpace=wrap;html=1;" parent="evMjg7DIV9kg0iN_RudY-1" vertex="1">
                    <mxGeometry x="270" y="290" width="120" height="60" as="geometry"/>
                </mxCell>
                <mxCell id="4bAGWJzG4Wa3ph4t4Eim-1" value="Operated during test: Y/N." style="rounded=0;whiteSpace=wrap;html=1;" parent="evMjg7DIV9kg0iN_RudY-1" vertex="1">
                    <mxGeometry x="270" y="370" width="120" height="60" as="geometry"/>
                </mxCell>
                <mxCell id="bVf4YIRvmUVixwbp24bU-0" value="Toggle to select:Bussines unit" style="rounded=0;whiteSpace=wrap;html=1;" parent="evMjg7DIV9kg0iN_RudY-1" vertex="1">
                    <mxGeometry x="230" y="200" width="120" height="60" as="geometry"/>
                </mxCell>
                <mxCell id="xRPLP_qJnTxZJ20RIi7o-0" value="End date for test" style="rounded=0;whiteSpace=wrap;html=1;" parent="evMjg7DIV9kg0iN_RudY-1" vertex="1">
                    <mxGeometry x="1150" y="395" width="120" height="60" as="geometry"/>
                </mxCell>
                <mxCell id="TiTrOATbu9SmciyEOEHM-0" value="Project team requester:" style="rounded=0;whiteSpace=wrap;html=1;" parent="evMjg7DIV9kg0iN_RudY-1" vertex="1">
                    <mxGeometry x="760" y="310" width="160" height="60" as="geometry"/>
                </mxCell>
                <mxCell id="TiTrOATbu9SmciyEOEHM-1" value="Test planner:(Get name via logged user when click to calculate button)" style="rounded=0;whiteSpace=wrap;html=1;" parent="evMjg7DIV9kg0iN_RudY-1" vertex="1">
                    <mxGeometry x="1100" y="310" width="160" height="60" as="geometry"/>
                </mxCell>
                <mxCell id="TiTrOATbu9SmciyEOEHM-2" value="Rel test performer(To be added after qualification start by rel)" style="rounded=0;whiteSpace=wrap;html=1;" parent="evMjg7DIV9kg0iN_RudY-1" vertex="1">
                    <mxGeometry x="1290" y="310" width="190" height="60" as="geometry"/>
                </mxCell>
                <mxCell id="TiTrOATbu9SmciyEOEHM-3" value="Project team FT:" style="rounded=0;whiteSpace=wrap;html=1;" parent="evMjg7DIV9kg0iN_RudY-1" vertex="1">
                    <mxGeometry x="950" y="310" width="120" height="60" as="geometry"/>
                </mxCell>
                <mxCell id="RTq5uI1EXYRO_LDTOZke-0" value="Buffer: Days added to test duration" style="rounded=0;whiteSpace=wrap;html=1;" parent="evMjg7DIV9kg0iN_RudY-1" vertex="1">
                    <mxGeometry x="270" y="850" width="120" height="60" as="geometry"/>
                </mxCell>
                <mxCell id="RTq5uI1EXYRO_LDTOZke-1" value="Cycles" style="rounded=0;whiteSpace=wrap;html=1;" parent="evMjg7DIV9kg0iN_RudY-1" vertex="1">
                    <mxGeometry x="270" y="770" width="120" height="60" as="geometry"/>
                </mxCell>
                <mxCell id="2kp0RiQIdVxLkYgMcjS8-0" value="Test start will be considered next work day at 12:00. And can be started earlier if possible.&lt;br&gt;e.g Test end on monday at 14:00, Next test will be started on Tuesday at 12:00&lt;br&gt;" style="shape=note2;boundedLbl=1;whiteSpace=wrap;html=1;size=25;verticalAlign=top;align=center;" parent="evMjg7DIV9kg0iN_RudY-1" vertex="1">
                    <mxGeometry x="1220" y="610" width="260" height="100" as="geometry"/>
                </mxCell>
                <mxCell id="2kp0RiQIdVxLkYgMcjS8-2" value="When save button is pressed close edit capability for user" style="shape=note2;boundedLbl=1;whiteSpace=wrap;html=1;size=25;verticalAlign=top;align=center;" parent="evMjg7DIV9kg0iN_RudY-1" vertex="1">
                    <mxGeometry x="1030" y="-140" width="120" height="90" as="geometry"/>
                </mxCell>
            </root>
        </mxGraphModel>
    </diagram>
    <diagram id="MhrQXcuz5mjTR60WTdn2" name="Planning">
        <mxGraphModel dx="1278" dy="649" grid="1" gridSize="10" guides="1" tooltips="1" connect="1" arrows="1" fold="1" page="1" pageScale="1" pageWidth="1600" pageHeight="1200" math="0" shadow="0">
            <root>
                <mxCell id="TK3ACEvgdBbz_1Hgbox4-0"/>
                <mxCell id="TK3ACEvgdBbz_1Hgbox4-1" parent="TK3ACEvgdBbz_1Hgbox4-0"/>
                <mxCell id="UUB-1cs5WtMnaBPNgjiE-0" style="edgeStyle=orthogonalEdgeStyle;rounded=0;orthogonalLoop=1;jettySize=auto;html=1;exitX=1;exitY=0.5;exitDx=0;exitDy=0;" parent="TK3ACEvgdBbz_1Hgbox4-1" source="bScnouBe5XKYRXIRtfD8-1" edge="1">
                    <mxGeometry relative="1" as="geometry">
                        <mxPoint x="870" y="300" as="targetPoint"/>
                    </mxGeometry>
                </mxCell>
                <mxCell id="uDeRx7ihc6-tACdez9_r-1" style="edgeStyle=orthogonalEdgeStyle;rounded=0;orthogonalLoop=1;jettySize=auto;html=1;exitX=1;exitY=0.5;exitDx=0;exitDy=0;fontSize=18;" parent="TK3ACEvgdBbz_1Hgbox4-1" source="bScnouBe5XKYRXIRtfD8-1" target="uDeRx7ihc6-tACdez9_r-0" edge="1">
                    <mxGeometry relative="1" as="geometry"/>
                </mxCell>
                <mxCell id="bScnouBe5XKYRXIRtfD8-1" value="" style="rounded=0;whiteSpace=wrap;html=1;" parent="TK3ACEvgdBbz_1Hgbox4-1" vertex="1">
                    <mxGeometry x="160" y="100" width="600" height="400" as="geometry"/>
                </mxCell>
                <mxCell id="liT5afjlEW7ip1pkCoO5-1" value="" style="rounded=1;absoluteArcSize=1;html=1;arcSize=10;" parent="TK3ACEvgdBbz_1Hgbox4-1" vertex="1">
                    <mxGeometry x="20" y="230" width="100" height="100" as="geometry"/>
                </mxCell>
                <mxCell id="liT5afjlEW7ip1pkCoO5-2" value="Calendar&amp;nbsp;&lt;br&gt;Week 1" style="html=1;shape=mxgraph.er.anchor;whiteSpace=wrap;" parent="liT5afjlEW7ip1pkCoO5-1" vertex="1">
                    <mxGeometry width="50" height="100" as="geometry"/>
                </mxCell>
                <mxCell id="liT5afjlEW7ip1pkCoO5-3" value="Monday&lt;br&gt;....&lt;br&gt;Sunday" style="rounded=1;absoluteArcSize=1;html=1;arcSize=10;whiteSpace=wrap;points=[];strokeColor=inherit;fillColor=inherit;" parent="liT5afjlEW7ip1pkCoO5-1" vertex="1">
                    <mxGeometry x="50" y="5" width="45" height="90" as="geometry"/>
                </mxCell>
                <mxCell id="tvGqzPx8-_0jWJkVg019-2" style="edgeStyle=orthogonalEdgeStyle;rounded=0;orthogonalLoop=1;jettySize=auto;html=1;entryX=0.5;entryY=0;entryDx=0;entryDy=0;" parent="TK3ACEvgdBbz_1Hgbox4-1" source="liT5afjlEW7ip1pkCoO5-5" target="tvGqzPx8-_0jWJkVg019-0" edge="1">
                    <mxGeometry relative="1" as="geometry"/>
                </mxCell>
                <mxCell id="tvGqzPx8-_0jWJkVg019-3" style="edgeStyle=orthogonalEdgeStyle;rounded=0;orthogonalLoop=1;jettySize=auto;html=1;exitX=0.5;exitY=1;exitDx=0;exitDy=0;entryX=0.5;entryY=0;entryDx=0;entryDy=0;" parent="TK3ACEvgdBbz_1Hgbox4-1" source="liT5afjlEW7ip1pkCoO5-5" target="tvGqzPx8-_0jWJkVg019-1" edge="1">
                    <mxGeometry relative="1" as="geometry"/>
                </mxCell>
                <mxCell id="liT5afjlEW7ip1pkCoO5-5" value="Chamber 1" style="rounded=0;whiteSpace=wrap;html=1;" parent="TK3ACEvgdBbz_1Hgbox4-1" vertex="1">
                    <mxGeometry x="260" y="20" width="120" height="60" as="geometry"/>
                </mxCell>
                <mxCell id="tvGqzPx8-_0jWJkVg019-0" value="Test 1 Name&amp;nbsp;" style="rounded=0;whiteSpace=wrap;html=1;" parent="TK3ACEvgdBbz_1Hgbox4-1" vertex="1">
                    <mxGeometry x="180" y="170" width="120" height="60" as="geometry"/>
                </mxCell>
                <mxCell id="tvGqzPx8-_0jWJkVg019-16" style="edgeStyle=orthogonalEdgeStyle;rounded=0;orthogonalLoop=1;jettySize=auto;html=1;exitX=1;exitY=0.5;exitDx=0;exitDy=0;entryX=0;entryY=0.5;entryDx=0;entryDy=0;entryPerimeter=0;" parent="TK3ACEvgdBbz_1Hgbox4-1" source="tvGqzPx8-_0jWJkVg019-1" target="tvGqzPx8-_0jWJkVg019-15" edge="1">
                    <mxGeometry relative="1" as="geometry"/>
                </mxCell>
                <mxCell id="tvGqzPx8-_0jWJkVg019-18" style="edgeStyle=orthogonalEdgeStyle;rounded=0;orthogonalLoop=1;jettySize=auto;html=1;exitX=1;exitY=0.5;exitDx=0;exitDy=0;entryX=0;entryY=0.5;entryDx=0;entryDy=0;entryPerimeter=0;" parent="TK3ACEvgdBbz_1Hgbox4-1" source="tvGqzPx8-_0jWJkVg019-1" target="tvGqzPx8-_0jWJkVg019-17" edge="1">
                    <mxGeometry relative="1" as="geometry">
                        <Array as="points">
                            <mxPoint x="480" y="200"/>
                            <mxPoint x="480" y="280"/>
                        </Array>
                    </mxGeometry>
                </mxCell>
                <mxCell id="tvGqzPx8-_0jWJkVg019-1" value="Percentage done of test" style="rounded=0;whiteSpace=wrap;html=1;" parent="TK3ACEvgdBbz_1Hgbox4-1" vertex="1">
                    <mxGeometry x="330" y="170" width="120" height="60" as="geometry"/>
                </mxCell>
                <mxCell id="tvGqzPx8-_0jWJkVg019-15" value="Taken form API of espec chamber(if it exists) based on Profile Name from the chamber matching the name from the planning" style="shape=note2;boundedLbl=1;whiteSpace=wrap;html=1;size=25;verticalAlign=top;align=center;" parent="TK3ACEvgdBbz_1Hgbox4-1" vertex="1">
                    <mxGeometry x="510" y="110" width="190" height="110" as="geometry"/>
                </mxCell>
                <mxCell id="tvGqzPx8-_0jWJkVg019-17" value="Search for a way to get data from Simpati or Voetsch chambers?" style="shape=note2;boundedLbl=1;whiteSpace=wrap;html=1;size=25;verticalAlign=top;align=center;" parent="TK3ACEvgdBbz_1Hgbox4-1" vertex="1">
                    <mxGeometry x="510" y="240" width="200" height="80" as="geometry"/>
                </mxCell>
                <mxCell id="tvGqzPx8-_0jWJkVg019-19" value="" style="rounded=1;absoluteArcSize=1;html=1;arcSize=10;" parent="TK3ACEvgdBbz_1Hgbox4-1" vertex="1">
                    <mxGeometry x="20" y="580" width="100" height="100" as="geometry"/>
                </mxCell>
                <mxCell id="tvGqzPx8-_0jWJkVg019-20" value="Calendar&amp;nbsp;&lt;br&gt;Week" style="html=1;shape=mxgraph.er.anchor;whiteSpace=wrap;" parent="tvGqzPx8-_0jWJkVg019-19" vertex="1">
                    <mxGeometry width="50" height="100" as="geometry"/>
                </mxCell>
                <mxCell id="tvGqzPx8-_0jWJkVg019-21" value="Monday&lt;br&gt;....&lt;br&gt;Sunday" style="rounded=1;absoluteArcSize=1;html=1;arcSize=10;whiteSpace=wrap;points=[];strokeColor=inherit;fillColor=inherit;" parent="tvGqzPx8-_0jWJkVg019-19" vertex="1">
                    <mxGeometry x="50" y="5" width="45" height="90" as="geometry"/>
                </mxCell>
                <mxCell id="08dZ3QWXXHBnM-fkIQXq-2" style="edgeStyle=orthogonalEdgeStyle;rounded=0;orthogonalLoop=1;jettySize=auto;html=1;exitX=0.5;exitY=1;exitDx=0;exitDy=0;exitPerimeter=0;entryX=0.5;entryY=0;entryDx=0;entryDy=0;entryPerimeter=0;" parent="TK3ACEvgdBbz_1Hgbox4-1" source="08dZ3QWXXHBnM-fkIQXq-0" target="08dZ3QWXXHBnM-fkIQXq-1" edge="1">
                    <mxGeometry relative="1" as="geometry"/>
                </mxCell>
                <mxCell id="08dZ3QWXXHBnM-fkIQXq-0" value="" style="html=1;verticalLabelPosition=bottom;labelBackgroundColor=#ffffff;verticalAlign=top;shadow=0;dashed=0;strokeWidth=2;shape=mxgraph.ios7.misc.select;fillColor=#0080f0;strokeColor=#ffffff;sketch=0;" parent="TK3ACEvgdBbz_1Hgbox4-1" vertex="1">
                    <mxGeometry x="410" y="290" width="70" height="50" as="geometry"/>
                </mxCell>
                <mxCell id="08dZ3QWXXHBnM-fkIQXq-1" value="Add check box, if checked test can Be manualy moved to another chamber or week, and before change, test has to be compared to chamber capabilities to see if test is possible" style="shape=note2;boundedLbl=1;whiteSpace=wrap;html=1;size=25;verticalAlign=top;align=center;" parent="TK3ACEvgdBbz_1Hgbox4-1" vertex="1">
                    <mxGeometry x="470" y="380" width="250" height="110" as="geometry"/>
                </mxCell>
                <mxCell id="OMsEtouMxTzOzzgkOLAS-1" value="Tests are added based on Test Duration Calculator sheet" style="shape=note2;boundedLbl=1;whiteSpace=wrap;html=1;size=25;verticalAlign=top;align=center;" parent="TK3ACEvgdBbz_1Hgbox4-1" vertex="1">
                    <mxGeometry x="180" y="280" width="200" height="70" as="geometry"/>
                </mxCell>
                <mxCell id="UUB-1cs5WtMnaBPNgjiE-1" value="FUTURE STATE:With this data, from chamber and test duration, a New Page, Test tracking can be created." style="rounded=0;whiteSpace=wrap;html=1;" parent="TK3ACEvgdBbz_1Hgbox4-1" vertex="1">
                    <mxGeometry x="870" y="230" width="240" height="135" as="geometry"/>
                </mxCell>
                <mxCell id="uDeRx7ihc6-tACdez9_r-0" value="&lt;font style=&quot;font-size: 12px&quot;&gt;FUTURE STATE: Send e-mail to REL tester with tests that need to start next CW.&lt;/font&gt;" style="shape=note2;boundedLbl=1;whiteSpace=wrap;html=1;size=25;verticalAlign=top;align=center;fontSize=18;" parent="TK3ACEvgdBbz_1Hgbox4-1" vertex="1">
                    <mxGeometry x="860" y="380" width="260" height="90" as="geometry"/>
                </mxCell>
            </root>
        </mxGraphModel>
    </diagram>
    <diagram id="CCFPiXinFv-ZukWovo4Z" name="Test Tracking">
        <mxGraphModel dx="1278" dy="649" grid="1" gridSize="10" guides="1" tooltips="1" connect="1" arrows="1" fold="1" page="1" pageScale="1" pageWidth="1600" pageHeight="1200" math="0" shadow="0">
            <root>
                <mxCell id="uo6-Z-7ggpIEmoZJLxA2-0"/>
                <mxCell id="uo6-Z-7ggpIEmoZJLxA2-1" parent="uo6-Z-7ggpIEmoZJLxA2-0"/>
                <mxCell id="uo6-Z-7ggpIEmoZJLxA2-2" value="" style="rounded=0;whiteSpace=wrap;html=1;" parent="uo6-Z-7ggpIEmoZJLxA2-1" vertex="1">
                    <mxGeometry x="180" y="50" width="1230" height="590" as="geometry"/>
                </mxCell>
                <mxCell id="pOonoEpq-_hy6tB-ILtk-0" value="Completed based on Planning sheet(Only if fully functional for all chambers)" style="text;html=1;strokeColor=none;fillColor=none;align=center;verticalAlign=middle;whiteSpace=wrap;rounded=0;" parent="uo6-Z-7ggpIEmoZJLxA2-1" vertex="1">
                    <mxGeometry x="510" y="70" width="550" height="30" as="geometry"/>
                </mxCell>
                <mxCell id="pOonoEpq-_hy6tB-ILtk-1" value="ID&amp;nbsp;" style="rounded=0;whiteSpace=wrap;html=1;" parent="uo6-Z-7ggpIEmoZJLxA2-1" vertex="1">
                    <mxGeometry x="230" y="150" width="120" height="60" as="geometry"/>
                </mxCell>
                <mxCell id="pOonoEpq-_hy6tB-ILtk-2" value="Project name" style="rounded=0;whiteSpace=wrap;html=1;" parent="uo6-Z-7ggpIEmoZJLxA2-1" vertex="1">
                    <mxGeometry x="380" y="150" width="120" height="60" as="geometry"/>
                </mxCell>
                <mxCell id="pOonoEpq-_hy6tB-ILtk-3" value="Test start" style="rounded=0;whiteSpace=wrap;html=1;" parent="uo6-Z-7ggpIEmoZJLxA2-1" vertex="1">
                    <mxGeometry x="980" y="150" width="120" height="60" as="geometry"/>
                </mxCell>
                <mxCell id="pOonoEpq-_hy6tB-ILtk-4" value="Test end" style="rounded=0;whiteSpace=wrap;html=1;" parent="uo6-Z-7ggpIEmoZJLxA2-1" vertex="1">
                    <mxGeometry x="1130" y="150" width="120" height="60" as="geometry"/>
                </mxCell>
                <mxCell id="pOonoEpq-_hy6tB-ILtk-5" value="Planned test start" style="rounded=0;whiteSpace=wrap;html=1;" parent="uo6-Z-7ggpIEmoZJLxA2-1" vertex="1">
                    <mxGeometry x="680" y="150" width="120" height="60" as="geometry"/>
                </mxCell>
                <mxCell id="pOonoEpq-_hy6tB-ILtk-6" value="Planned test end" style="rounded=0;whiteSpace=wrap;html=1;" parent="uo6-Z-7ggpIEmoZJLxA2-1" vertex="1">
                    <mxGeometry x="830" y="150" width="120" height="60" as="geometry"/>
                </mxCell>
                <mxCell id="pOonoEpq-_hy6tB-ILtk-7" value="Equipment" style="rounded=0;whiteSpace=wrap;html=1;" parent="uo6-Z-7ggpIEmoZJLxA2-1" vertex="1">
                    <mxGeometry x="1280" y="150" width="120" height="60" as="geometry"/>
                </mxCell>
                <mxCell id="GhWumu8-i2gPlyEArIOV-0" value="REL tester" style="rounded=0;whiteSpace=wrap;html=1;" parent="uo6-Z-7ggpIEmoZJLxA2-1" vertex="1">
                    <mxGeometry x="530" y="150" width="120" height="60" as="geometry"/>
                </mxCell>
            </root>
        </mxGraphModel>
    </diagram>
    <diagram id="sOQ-vm1FiDkunTsD6tQe" name="Test report">
        <mxGraphModel dx="1278" dy="649" grid="1" gridSize="10" guides="1" tooltips="1" connect="1" arrows="1" fold="1" page="1" pageScale="1" pageWidth="1600" pageHeight="1200" math="0" shadow="0">
            <root>
                <mxCell id="RmXN4j_WUP4WUFSyS2Kz-0"/>
                <mxCell id="RmXN4j_WUP4WUFSyS2Kz-1" parent="RmXN4j_WUP4WUFSyS2Kz-0"/>
                <mxCell id="RmXN4j_WUP4WUFSyS2Kz-2" value="Create the test report based on input data from TO and project folder" style="rounded=0;whiteSpace=wrap;html=1;" parent="RmXN4j_WUP4WUFSyS2Kz-1" vertex="1">
                    <mxGeometry x="380" y="90" width="670" height="380" as="geometry"/>
                </mxCell>
            </root>
        </mxGraphModel>
    </diagram>
    <diagram id="IypyJwprWpAJfg4V_pmH" name="Page-7">
        <mxGraphModel dx="1278" dy="649" grid="1" gridSize="10" guides="1" tooltips="1" connect="1" arrows="1" fold="1" page="1" pageScale="1" pageWidth="1600" pageHeight="1200" math="0" shadow="0">
            <root>
                <mxCell id="QoWIkMNX81xCGFCUzE9S-0"/>
                <mxCell id="QoWIkMNX81xCGFCUzE9S-1" parent="QoWIkMNX81xCGFCUzE9S-0"/>
                <mxCell id="QoWIkMNX81xCGFCUzE9S-2" value="Future state: Create cotation basesd on test duration calculator" style="rounded=0;whiteSpace=wrap;html=1;" vertex="1" parent="QoWIkMNX81xCGFCUzE9S-1">
                    <mxGeometry x="230" y="130" width="470" height="270" as="geometry"/>
                </mxCell>
            </root>
        </mxGraphModel>
    </diagram>
</mxfile>